<?xml version="1.0" encoding="UTF-8"?>
<svg version="1.1" xmlns="http://www.w3.org/2000/svg" width="534" height="534">
<path d="M0 0 C9.15397544 5.4933259 16.53054264 14.28216351 23.97607422 21.8359375 C29.54549966 27.48571879 35.10582535 33.06461146 41.13525391 38.2265625 C43.49621007 40.26905161 45.71032923 42.4378361 47.91357422 44.6484375 C48.68830078 45.42058594 49.46302734 46.19273438 50.26123047 46.98828125 C52.12872732 48.95154717 53.86821635 50.90951052 55.6105957 52.97485352 C60.85910602 58.9850063 66.57301393 64.54321558 72.22976685 70.16479492 C74.32658638 72.24871583 76.42014788 74.33586259 78.51293945 76.42382812 C82.95616904 80.85569444 87.40332184 85.2836108 91.85107422 89.7109375 C97.00985586 94.84602816 102.16696674 99.98277401 107.31985474 105.1237793 C109.37108871 107.16858513 111.42533713 109.21032814 113.47973633 111.25195312 C118.79775682 116.54927034 124.044241 121.81842136 128.90774536 127.54052734 C134.1158518 133.35720992 139.78613346 138.7653535 145.31591797 144.2734375 C146.71860813 145.67425965 148.1210755 147.07530493 149.52333069 148.4765625 C153.19204961 152.14148637 156.863763 155.80339558 160.53613281 159.46466064 C164.292034 163.21028256 168.04506133 166.95878163 171.79833984 170.70703125 C179.14645976 178.04446703 186.49775001 185.37871755 193.85107422 192.7109375 C194.97087698 191.75818853 196.08967644 190.80426027 197.20805359 189.84983826 C197.83119288 189.31874671 198.45433218 188.78765516 199.09635448 188.24046993 C201.20967934 186.39835302 203.17508913 184.45151255 205.12060547 182.43359375 C206.23725586 181.29180664 206.23725586 181.29180664 207.37646484 180.12695312 C208.89356555 178.56580338 210.40663812 177.00072838 211.91552734 175.43164062 C220.83368625 166.34448991 230.24686001 158.44798329 243.44726562 158.24267578 C244.19927246 158.25282715 244.9512793 158.26297852 245.72607422 158.2734375 C246.91015869 158.28479736 246.91015869 158.28479736 248.11816406 158.29638672 C258.89448464 158.60010116 266.90911054 162.86525564 274.53857422 170.37109375 C283.32388963 180.01297742 284.5745223 190.01114211 284.01708984 202.62988281 C282.83893606 217.39838703 269.58093049 227.12229719 259.72607422 236.8359375 C254.08657454 242.39522757 248.51918814 247.94549088 243.36669922 253.96386719 C241.15312425 256.51546875 238.80603641 258.88808515 236.41357422 261.2734375 C235.54861328 262.14097656 234.68365234 263.00851562 233.79248047 263.90234375 C231.78856425 265.8580522 229.71391031 267.67988193 227.57348633 269.48413086 C221.56718236 274.72716256 216.01419822 280.43750391 210.3972168 286.08963013 C208.31329589 288.18644966 206.22614913 290.28001116 204.13818359 292.37280273 C199.70631728 296.81603232 195.27840091 301.26318512 190.85107422 305.7109375 C185.71598356 310.86971914 180.57923771 316.02683002 175.43823242 321.17971802 C173.39342659 323.23095199 171.35168358 325.28520041 169.31005859 327.33959961 C164.00839879 332.66197909 158.73495899 337.91356978 153.00805664 342.78103638 C147.27089658 347.91420368 141.93814962 353.50445357 136.50732422 358.95703125 C135.12892235 360.3373012 133.7502973 361.7173483 132.37145996 363.09718323 C128.76571949 366.7067182 125.16299388 370.31924749 121.56091309 373.93243408 C117.87561488 377.62801277 114.1874384 381.32071655 110.49951172 385.01367188 C103.28056496 392.24330178 96.06480373 399.47610206 88.85107422 406.7109375 C90.66453986 410.64024353 93.20791087 413.25924862 96.30419922 416.21875 C97.40995578 417.29918469 98.51541478 418.37992398 99.62060547 419.4609375 C101.35214569 421.1432003 103.08667518 422.8220965 104.82714844 424.49511719 C114.46132521 433.77941107 122.94620296 442.48378792 124.18701172 456.5078125 C124.31429855 469.38923959 122.02075893 479.09028469 112.85107422 488.7109375 C104.3231953 496.80519545 94.54929711 499.30651369 83.06494141 499.18798828 C70.9231379 498.70547835 62.41221513 492.59335516 54.13061523 484.23339844 C53.4874939 483.59217545 52.84437256 482.95095245 52.1817627 482.29029846 C50.0679254 480.18014988 47.96135048 478.06291298 45.85498047 475.9453125 C44.37853415 474.46767272 42.90171648 472.9904039 41.42454529 471.51348877 C38.33241094 468.4197926 35.24365686 465.32277427 32.1574707 462.22314453 C28.21752814 458.26625009 24.27107326 454.31593198 20.32226658 450.36788559 C17.27207039 447.31741629 14.22449676 444.26433819 11.17777824 441.21039581 C9.72442598 439.75387899 8.27048281 438.29795152 6.81591988 436.84264374 C4.77507112 434.79960563 2.73756049 432.75329457 0.70092773 430.70605469 C0.10902145 430.11460159 -0.48288483 429.5231485 -1.09272766 428.91377258 C-4.06010765 425.923981 -6.90966801 422.87495172 -9.66712952 419.6897583 C-12.87134206 415.98858842 -16.23104867 412.49921615 -19.70751953 409.0546875 C-20.32152618 408.44214111 -20.93553284 407.82959473 -21.56814575 407.19848633 C-22.8868473 405.88355739 -24.2067015 404.56978355 -25.52761841 403.25708008 C-27.62443794 401.17315917 -29.71799945 399.08601241 -31.81079102 396.99804688 C-36.25402061 392.56618056 -40.7011734 388.1382642 -45.14892578 383.7109375 C-50.30770742 378.57584684 -55.4648183 373.43910099 -60.6177063 368.2980957 C-62.66894027 366.25328987 -64.72318869 364.21154686 -66.77758789 362.16992188 C-72.18716411 356.78139319 -77.54097019 351.42212979 -82.48757935 345.59936523 C-86.13047448 341.45854062 -90.11048548 337.62885851 -94.02001953 333.7421875 C-95.40351341 332.36081604 -95.40351341 332.36081604 -96.81495667 330.95153809 C-99.24081055 328.52946196 -101.6696543 326.11040671 -104.09918213 323.6920166 C-106.58831694 321.21319913 -109.07454473 318.73146953 -111.56103516 316.25 C-116.42086036 311.40082826 -121.28385756 306.55484887 -126.14892578 301.7109375 C-130.39959914 305.26828698 -134.44217953 308.9032329 -138.29345703 312.8984375 C-139.22724456 313.85461343 -140.16150423 314.81032848 -141.09619141 315.765625 C-142.52894736 317.23529379 -143.95833852 318.70772109 -145.37963867 320.18847656 C-154.20955299 329.3680451 -162.78143208 336.88212633 -175.94580078 338.046875 C-188.81882666 338.17407881 -198.54057608 335.88766211 -208.14892578 326.7109375 C-216.24995234 318.01318354 -218.73838745 308.9787859 -218.62597656 297.33349609 C-218.16400647 284.90206348 -212.1510394 276.39102582 -203.57958984 267.89868164 C-202.92861328 267.24580673 -202.27763672 266.59293182 -201.60693359 265.92027283 C-199.46432016 263.77397013 -197.31461613 261.63492937 -195.16455078 259.49609375 C-193.66449077 257.99722716 -192.16480169 256.49798927 -190.66546631 254.99839783 C-187.52469182 251.85918526 -184.38059442 248.72335285 -181.23388672 245.59008789 C-177.21645795 241.58961158 -173.20560561 237.58262188 -169.1970253 233.57328129 C-166.10023292 230.47676199 -163.00083186 227.38286492 -159.9005661 224.28982353 C-158.42172033 222.8141428 -156.94346436 221.33787076 -155.46582794 219.86097908 C-153.39165728 217.78899722 -151.3142135 215.72035273 -149.23583984 213.65258789 C-148.33463409 212.75070236 -148.33463409 212.75070236 -147.41522217 211.83059692 C-143.76441836 208.20676088 -139.98120435 204.79624805 -136.09240341 201.43024349 C-133.10593364 198.78824994 -130.29822998 195.98391474 -127.49267578 193.15234375 C-126.88012939 192.5383371 -126.26758301 191.92433044 -125.63647461 191.29171753 C-124.32154567 189.97301598 -123.00777183 188.65316178 -121.69506836 187.33224487 C-119.61114745 185.23542534 -117.52400069 183.14186384 -115.43603516 181.04907227 C-111.00416884 176.60584268 -106.57625248 172.15868988 -102.14892578 167.7109375 C-97.01383512 162.55215586 -91.87708928 157.39504498 -86.73608398 152.24215698 C-84.69127815 150.19092301 -82.64953514 148.13667459 -80.60791016 146.08227539 C-75.21069264 140.66397758 -69.84284264 135.29994171 -64.01049805 130.34542847 C-60.03007164 126.85054883 -56.34998044 123.03275551 -52.61767578 119.27734375 C-51.74115356 118.39940659 -50.86463135 117.52146942 -49.96154785 116.6169281 C-47.18829782 113.83812254 -44.41856296 111.05584353 -41.64892578 108.2734375 C-39.75881773 106.37773885 -37.8679106 104.48283967 -35.97705078 102.58789062 C-31.36501574 97.96488561 -26.75585437 93.33903093 -22.14892578 88.7109375 C-26.60401536 79.49999563 -35.21416915 72.59710286 -42.56494141 65.68554688 C-50.83957966 57.63511559 -56.16224386 49.14837443 -56.44140625 37.46630859 C-56.55157304 24.367208 -53.58723311 15.79937966 -44.62939453 6.05859375 C-33.11298735 -4.95344523 -14.12669384 -7.20786886 0 0 Z M-25.43798828 200.3359375 C-38.87987991 217.77406718 -43.52706622 238.24541762 -40.87207031 259.97705078 C-37.66140717 279.68278043 -25.6164106 296.53228644 -10.14892578 308.7109375 C6.54241172 320.27738618 26.60462539 325.09522145 46.66357422 321.5234375 C66.79462682 317.61378511 84.28376615 306.73195591 95.97216797 289.70703125 C107.48253148 271.35266781 112.03347358 251.49373694 107.35107422 230.1484375 C102.43150389 210.39750911 90.5057627 193.91119036 73.23779297 183.0703125 C39.08151634 163.49594847 0.31907805 170.79882389 -25.43798828 200.3359375 Z " fill="#F89513" transform="translate(234.14892578125,19.2890625)"/>
</svg>
